<svg width="51" height="51" viewBox="0 0 51 51" fill="none" xmlns="http://www.w3.org/2000/svg">
    <path d="M25.2708 44.0187C15.0134 44.0187 6.65796 35.6633 6.65796 25.338C6.65796 15.0126 15.0134 6.65723 25.2708 6.65723C35.5282 6.65723 43.8836 15.0126 43.8836 25.338C43.8836 35.5954 35.5282 44.0187 25.2708 44.0187ZM25.2708 7.2686C15.353 7.2686 7.26934 15.3523 7.26934 25.338C7.26934 35.3237 15.4209 43.3394 25.2708 43.3394C35.1886 43.3394 43.2722 35.2557 43.2722 25.27C43.2722 15.2843 35.1886 7.2686 25.2708 7.2686Z" fill="black"/>
    <path d="M25.27 50.6758C11.3443 50.6758 0 39.3315 0 25.3379C0 11.3443 11.3443 0 25.27 0C39.1956 0 50.5399 11.3443 50.5399 25.3379C50.5399 39.2635 39.1956 50.6758 25.27 50.6758ZM25.27 1.08688C11.9557 1.08688 1.15482 11.9557 1.15482 25.3379C1.15482 38.7201 11.9557 49.5889 25.27 49.5889C38.5842 49.5889 49.3851 38.7201 49.3851 25.3379C49.3851 11.9557 38.5842 1.08688 25.27 1.08688ZM35.5274 31.7233C32.1988 34.916 29.142 36.0029 26.0172 36.0029C24.7945 36.0029 21.6017 35.4594 19.9035 33.014C18.409 30.7723 17.8656 27.6475 17.8656 25.6096C17.8656 19.7676 19.7676 14.1974 25.6775 14.1974C30.2968 14.1974 34.1009 18.2732 35.5274 21.2621H36.1388V13.1105H35.5274C35.1198 13.6539 33.8971 14.6729 33.1498 14.6729C32.3347 14.6729 29.2099 13.0426 25.4058 13.0426C16.9146 13.0426 12.0915 18.477 12.0915 25.4737C12.0915 31.9271 16.1673 37.6332 25.6096 37.6332C30.7723 37.6332 33.965 35.4594 36.886 32.5385L35.5274 31.7233ZM30.9081 19.36H30.7723C30.5006 19.6997 29.9571 20.2431 29.6175 20.2431C29.142 20.2431 27.7834 19.2242 26.221 19.2242C22.4848 19.2242 20.3111 21.6017 20.3111 24.8624C20.3111 27.8513 22.2131 30.6364 26.2889 30.6364C28.5306 30.6364 29.9571 29.6175 31.2478 28.2589L30.7044 27.8513C29.2099 29.3458 27.9192 29.8213 26.4927 29.8213C25.9493 29.8213 24.5227 29.5495 23.7755 28.3947C23.0962 27.3758 23.0283 25.8134 23.0283 24.8624C23.0283 22.1452 23.7076 19.6997 26.2889 19.6997C27.9872 19.6997 30.093 22.0772 30.7044 22.7565H30.8402V19.36H30.9081ZM24.3189 4.82303H26.2889V2.85306H24.3189V4.82303ZM2.92099 26.2889H4.89097V24.3189H2.92099V26.2889ZM45.649 26.2889H47.6189V24.3189H45.649V26.2889ZM11.616 10.1216L10.1895 11.5481L8.76297 10.1216L10.1895 8.69504L11.616 10.1216ZM38.9918 10.1216L40.4183 11.5481L41.8449 10.1216L40.4183 8.69504L38.9918 10.1216ZM24.3189 47.7548H26.2889V45.7848H24.3189V47.7548ZM11.616 40.4863L10.1895 39.0597L8.76297 40.4863L10.1895 41.9128L11.616 40.4863ZM38.9918 40.4863L40.4183 39.0597L41.8449 40.4863L40.4183 41.9128L38.9918 40.4863ZM17.7977 5.50233C17.7977 5.90991 17.458 6.18163 17.1184 6.18163C16.7108 6.18163 16.4391 5.84198 16.4391 5.50233C16.4391 5.16268 16.7787 4.82303 17.1184 4.82303C17.5259 4.7551 17.7977 5.09475 17.7977 5.50233ZM6.24957 17.1184C6.24957 17.5259 5.90992 17.7977 5.57027 17.7977C5.23062 17.7977 4.89097 17.458 4.89097 17.1184C4.89097 16.7108 5.23062 16.4391 5.57027 16.4391C5.90992 16.4391 6.24957 16.7108 6.24957 17.1184ZM32.8102 5.50233C32.8102 5.90991 33.1498 6.18163 33.4895 6.18163C33.8971 6.18163 34.1688 5.84198 34.1688 5.50233C34.1688 5.16268 33.8291 4.82303 33.4895 4.82303C33.0819 4.7551 32.8102 5.09475 32.8102 5.50233ZM44.3583 17.1184C44.3583 17.5259 44.6979 17.7977 45.0376 17.7977C45.4452 17.7977 45.7169 17.458 45.7169 17.1184C45.7169 16.7108 45.3772 16.4391 45.0376 16.4391C44.63 16.3711 44.3583 16.7108 44.3583 17.1184ZM17.7977 45.1055C17.7977 44.6979 17.458 44.4262 17.1184 44.4262C16.7108 44.4262 16.4391 44.7659 16.4391 45.1055C16.4391 45.5131 16.7787 45.7848 17.1184 45.7848C17.5259 45.8527 17.7977 45.5131 17.7977 45.1055ZM6.24957 33.4895C6.24957 33.0819 5.90992 32.8102 5.57027 32.8102C5.23062 32.8102 4.89097 33.1498 4.89097 33.4895C4.89097 33.8291 5.23062 34.1688 5.57027 34.1688C5.90992 34.1688 6.24957 33.8971 6.24957 33.4895ZM32.8102 45.1055C32.8102 44.6979 33.1498 44.4262 33.4895 44.4262C33.8971 44.4262 34.1688 44.7659 34.1688 45.1055C34.1688 45.5131 33.8291 45.7848 33.4895 45.7848C33.0819 45.8527 32.8102 45.5131 32.8102 45.1055ZM44.3583 33.4895C44.3583 33.0819 44.6979 32.8102 45.0376 32.8102C45.4452 32.8102 45.7169 33.1498 45.7169 33.4895C45.7169 33.8291 45.3772 34.1688 45.0376 34.1688C44.63 34.2367 44.3583 33.8971 44.3583 33.4895Z" fill="black"/>
</svg>
